<svg xmlns="http://www.w3.org/2000/svg" xmlns:xlink="http://www.w3.org/1999/xlink" width="449" zoomAndPan="magnify" viewBox="0 0 336.75 110.999996" height="148" preserveAspectRatio="xMidYMid meet" version="1.0"><defs><filter x="0%" y="0%" width="100%" height="100%" id="2cc852affc"><feColorMatrix values="0 0 0 0 1 0 0 0 0 1 0 0 0 0 1 0 0 0 1 0" color-interpolation-filters="sRGB"/></filter><g/><clipPath id="0d94bbf97f"><path d="M 41 0.0429688 L 147 0.0429688 L 147 106 L 41 106 Z M 41 0.0429688 " clip-rule="nonzero"/></clipPath><mask id="6a79732838"><g filter="url(#2cc852affc)"><rect x="-33.675" width="404.1" fill="#000000" y="-11.1" height="133.199995" fill-opacity="0.8"/></g></mask><clipPath id="59f2665251"><path d="M 0.3125 0.4375 L 105.132812 0.4375 L 105.132812 105.257812 L 0.3125 105.257812 Z M 0.3125 0.4375 " clip-rule="nonzero"/></clipPath><clipPath id="f4ced0e7ef"><path d="M 52.722656 0.4375 C 23.777344 0.4375 0.3125 23.902344 0.3125 52.847656 C 0.3125 81.792969 23.777344 105.257812 52.722656 105.257812 C 81.667969 105.257812 105.132812 81.792969 105.132812 52.847656 C 105.132812 23.902344 81.667969 0.4375 52.722656 0.4375 Z M 52.722656 0.4375 " clip-rule="nonzero"/></clipPath><clipPath id="e190271225"><rect x="0" width="106" y="0" height="106"/></clipPath><clipPath id="857f727de3"><path d="M 0.175781 25 L 82.4375 25 L 82.4375 81 L 0.175781 81 Z M 0.175781 25 " clip-rule="nonzero"/></clipPath><clipPath id="f418f3affc"><path d="M 20 9.253906 L 47 9.253906 L 47 26 L 20 26 Z M 20 9.253906 " clip-rule="nonzero"/></clipPath><clipPath id="8c29acaa0e"><path d="M 52 85 L 64 85 L 64 96.191406 L 52 96.191406 Z M 52 85 " clip-rule="nonzero"/></clipPath></defs><g clip-path="url(#0d94bbf97f)"><g mask="url(#6a79732838)"><g transform="matrix(1, 0, 0, 1, 41, 0.000000000000008493)"><g clip-path="url(#e190271225)"><g clip-path="url(#59f2665251)"><g clip-path="url(#f4ced0e7ef)"><path fill="#f5d702" d="M 0.3125 0.4375 L 105.132812 0.4375 L 105.132812 105.257812 L 0.3125 105.257812 Z M 0.3125 0.4375 " fill-opacity="1" fill-rule="nonzero"/></g></g></g></g></g></g><g clip-path="url(#857f727de3)"><path fill="#3f4752" d="M 4.320312 71.84375 L 65.410156 71.84375 L 65.410156 38.480469 C 65.410156 37.234375 65.921875 35.984375 66.832031 35.078125 L 75.632812 26.226562 C 77.335938 24.523438 80.171875 24.636719 81.707031 26.566406 C 83.070312 28.210938 82.785156 30.710938 81.25 32.242188 L 73.585938 39.902344 L 73.585938 75.246094 C 73.585938 77.914062 71.429688 80.011719 68.816406 80.011719 L 4.546875 80.011719 C 2.390625 80.011719 0.460938 78.480469 0.234375 76.324219 C -0.0507812 73.941406 1.878906 71.84375 4.320312 71.84375 Z M 4.320312 71.84375 " fill-opacity="1" fill-rule="nonzero"/></g><path fill="#2c7bc3" d="M 56.328125 66.453125 L 10.621094 66.453125 C 8.40625 66.453125 6.703125 65.089844 6.933594 63.503906 L 11.757812 30.9375 C 11.984375 29.574219 13.574219 28.554688 15.449219 28.554688 L 51.445312 28.554688 C 53.316406 28.554688 54.964844 29.574219 55.136719 30.9375 L 59.960938 63.503906 C 60.246094 65.089844 58.542969 66.453125 56.328125 66.453125 Z M 25.042969 32.582031 C 25.042969 31.617188 23.964844 30.878906 22.601562 30.878906 C 21.296875 30.878906 20.160156 31.671875 20.160156 32.582031 L 20.160156 35.53125 C 20.160156 36.496094 21.238281 37.234375 22.601562 37.234375 C 23.90625 37.234375 25.042969 36.441406 25.042969 35.53125 Z M 33.503906 54.367188 C 30.835938 54.367188 28.222656 52.949219 26.234375 50.792969 C 24.25 48.582031 22.828125 45.746094 22.089844 42.511719 C 21.410156 45.800781 22.148438 49.433594 24.136719 52.4375 C 25.101562 53.914062 26.464844 55.277344 28.050781 56.242188 C 29.640625 57.207031 31.574219 57.828125 33.503906 57.828125 C 35.433594 57.828125 37.363281 57.261719 39.011719 56.242188 C 40.601562 55.277344 41.960938 53.914062 42.929688 52.4375 C 44.914062 49.433594 45.652344 45.800781 44.972656 42.511719 C 44.234375 45.746094 42.8125 48.582031 40.828125 50.792969 C 38.726562 52.949219 36.113281 54.367188 33.503906 54.367188 Z M 46.789062 32.582031 C 46.789062 31.617188 45.710938 30.878906 44.347656 30.878906 C 43.042969 30.878906 41.90625 31.671875 41.90625 32.582031 L 41.90625 35.53125 C 41.90625 36.496094 42.984375 37.234375 44.347656 37.234375 C 45.652344 37.234375 46.789062 36.441406 46.789062 35.53125 Z M 46.789062 32.582031 " fill-opacity="1" fill-rule="nonzero"/><g clip-path="url(#f418f3affc)"><path fill="#2c7bc3" d="M 44.402344 25.375 L 44.347656 25.375 C 43.097656 25.375 42.132812 24.355469 42.132812 23.164062 L 42.132812 22.539062 C 42.132812 17.601562 37.933594 13.632812 32.933594 13.972656 C 28.507812 14.253906 24.929688 18.453125 24.929688 22.878906 L 24.929688 23.164062 C 24.929688 24.410156 23.90625 25.375 22.714844 25.375 L 22.660156 25.375 C 21.410156 25.375 20.445312 24.355469 20.445312 23.164062 L 20.445312 22.9375 C 20.445312 15.902344 25.839844 9.773438 32.933594 9.433594 C 40.375 9.09375 46.617188 15.105469 46.617188 22.539062 L 46.617188 23.164062 C 46.617188 24.355469 45.597656 25.375 44.402344 25.375 Z M 44.402344 25.375 " fill-opacity="1" fill-rule="nonzero"/></g><g clip-path="url(#8c29acaa0e)"><path fill="#3f4752" d="M 53.628906 87.65625 C 53.433594 87.953125 53.269531 88.261719 53.136719 88.589844 C 53 88.917969 52.902344 89.257812 52.835938 89.605469 C 52.769531 89.953125 52.734375 90.300781 52.738281 90.65625 C 52.738281 91.007812 52.777344 91.359375 52.847656 91.707031 C 52.917969 92.054688 53.023438 92.390625 53.160156 92.714844 C 53.296875 93.042969 53.464844 93.351562 53.664062 93.644531 C 53.863281 93.9375 54.089844 94.207031 54.339844 94.457031 C 54.59375 94.707031 54.867188 94.929688 55.160156 95.121094 C 55.457031 95.316406 55.769531 95.480469 56.097656 95.617188 C 56.425781 95.75 56.761719 95.847656 57.109375 95.914062 C 57.457031 95.984375 57.808594 96.015625 58.164062 96.011719 C 58.519531 96.011719 58.867188 95.972656 59.214844 95.902344 C 59.5625 95.832031 59.898438 95.726562 60.226562 95.589844 C 60.550781 95.453125 60.863281 95.285156 61.15625 95.085938 C 61.449219 94.886719 61.71875 94.664062 61.96875 94.410156 C 62.21875 94.160156 62.4375 93.886719 62.632812 93.589844 C 62.828125 93.292969 62.992188 92.984375 63.125 92.65625 C 63.261719 92.328125 63.359375 91.988281 63.425781 91.640625 C 63.496094 91.296875 63.527344 90.945312 63.523438 90.589844 C 63.523438 90.238281 63.484375 89.886719 63.414062 89.539062 C 63.34375 89.191406 63.238281 88.855469 63.101562 88.53125 C 62.964844 88.203125 62.796875 87.894531 62.597656 87.601562 C 62.398438 87.308594 62.171875 87.039062 61.921875 86.789062 C 61.667969 86.539062 61.394531 86.316406 61.101562 86.125 C 60.804688 85.929688 60.492188 85.765625 60.164062 85.632812 C 59.835938 85.496094 59.5 85.398438 59.152344 85.332031 C 58.804688 85.261719 58.453125 85.230469 58.097656 85.234375 C 57.742188 85.234375 57.394531 85.273438 57.046875 85.34375 C 56.699219 85.414062 56.363281 85.519531 56.035156 85.65625 C 55.710938 85.792969 55.402344 85.960938 55.105469 86.160156 C 54.8125 86.359375 54.542969 86.582031 54.292969 86.835938 C 54.046875 87.085938 53.824219 87.359375 53.628906 87.65625 Z M 53.628906 87.65625 " fill-opacity="1" fill-rule="nonzero"/></g><path fill="#3f4752" d="M 18.003906 85.175781 C 21.011719 85.175781 23.398438 87.617188 23.398438 90.566406 C 23.398438 93.574219 20.957031 95.957031 18.003906 95.957031 C 14.996094 95.957031 12.609375 93.515625 12.609375 90.566406 C 12.609375 87.617188 15.050781 85.175781 18.003906 85.175781 Z M 18.003906 85.175781 " fill-opacity="1" fill-rule="nonzero"/><g fill="#2c7bc3" fill-opacity="1"><g transform="translate(84.131791, 63.934243)"><g><path d="M 24.09375 -30.328125 C 26.21875 -30.328125 27.992188 -30.085938 29.421875 -29.609375 C 30.847656 -29.128906 31.96875 -28.5625 32.78125 -27.90625 C 33.601562 -27.257812 34.191406 -26.695312 34.546875 -26.21875 C 34.898438 -25.738281 35.078125 -25.5 35.078125 -25.5 L 33.640625 -24.390625 C 33.492188 -24.734375 33.085938 -25.222656 32.421875 -25.859375 C 31.765625 -26.492188 30.847656 -27.078125 29.671875 -27.609375 C 28.492188 -28.148438 27.03125 -28.421875 25.28125 -28.421875 C 21.769531 -28.421875 18.875 -27.203125 16.59375 -24.765625 C 14.320312 -22.335938 12.75 -19.046875 11.875 -14.890625 C 11.675781 -14.046875 11.535156 -13.234375 11.453125 -12.453125 C 11.367188 -11.671875 11.328125 -10.914062 11.328125 -10.1875 C 11.328125 -7.414062 11.984375 -5.234375 13.296875 -3.640625 C 14.609375 -2.054688 16.550781 -1.265625 19.125 -1.265625 C 20.03125 -1.265625 20.882812 -1.335938 21.6875 -1.484375 C 22.5 -1.628906 23.242188 -1.8125 23.921875 -2.03125 L 26.34375 -13.359375 L 24.21875 -13.359375 L 24.5625 -15.015625 L 32.828125 -15.015625 L 30.546875 -4.203125 C 30.546875 -4.203125 30.257812 -3.957031 29.6875 -3.46875 C 29.125 -2.988281 28.273438 -2.429688 27.140625 -1.796875 C 26.015625 -1.160156 24.617188 -0.601562 22.953125 -0.125 C 21.285156 0.351562 19.363281 0.59375 17.1875 0.59375 C 14.414062 0.59375 12.144531 0.113281 10.375 -0.84375 C 8.601562 -1.8125 7.289062 -3.140625 6.4375 -4.828125 C 5.59375 -6.523438 5.171875 -8.453125 5.171875 -10.609375 C 5.171875 -11.992188 5.34375 -13.421875 5.6875 -14.890625 C 6.3125 -17.742188 7.40625 -20.335938 8.96875 -22.671875 C 10.539062 -25.003906 12.59375 -26.863281 15.125 -28.25 C 17.65625 -29.632812 20.644531 -30.328125 24.09375 -30.328125 Z M 29.609375 -5.390625 C 29.691406 -5.441406 29.75 -5.488281 29.78125 -5.53125 C 29.8125 -5.570312 29.828125 -5.59375 29.828125 -5.59375 Z M 29.609375 -5.390625 "/></g></g></g><g fill="#2c7bc3" fill-opacity="1"><g transform="translate(116.71461, 63.934243)"><g><path d="M 16.25 -29.6875 L 12.265625 -10.984375 C 12.085938 -10.140625 12 -9.332031 12 -8.5625 C 12 -6.644531 12.570312 -5.125 13.71875 -4 C 14.863281 -2.882812 16.484375 -2.328125 18.578125 -2.328125 C 21.097656 -2.328125 23.257812 -3.113281 25.0625 -4.6875 C 26.875 -6.257812 28.050781 -8.359375 28.59375 -10.984375 L 32.578125 -29.734375 L 34.234375 -29.6875 L 30.25 -10.984375 C 29.675781 -8.328125 28.703125 -6.140625 27.328125 -4.421875 C 25.960938 -2.710938 24.28125 -1.445312 22.28125 -0.625 C 20.289062 0.1875 18.097656 0.59375 15.703125 0.59375 C 12.617188 0.59375 10.191406 -0.164062 8.421875 -1.6875 C 6.648438 -3.21875 5.765625 -5.34375 5.765625 -8.0625 C 5.765625 -8.9375 5.878906 -9.910156 6.109375 -10.984375 L 10.09375 -29.734375 Z M 16.25 -29.6875 "/></g></g></g><g fill="#2c7bc3" fill-opacity="1"><g transform="translate(148.321641, 63.934243)"><g><path d="M 3.78125 0 L 10.09375 -29.6875 L 22.53125 -29.6875 C 24.644531 -29.6875 26.378906 -29.140625 27.734375 -28.046875 C 29.097656 -26.960938 29.78125 -25.421875 29.78125 -23.421875 C 29.78125 -22.765625 29.695312 -22.097656 29.53125 -21.421875 C 29.15625 -19.554688 28.375 -17.988281 27.1875 -16.71875 C 26 -15.445312 24.613281 -14.515625 23.03125 -13.921875 L 27.109375 0 L 20.3125 0 L 16.421875 -13.1875 L 12.71875 -13.1875 L 9.921875 0 Z M 13.0625 -14.8125 L 16.796875 -14.8125 C 18.328125 -14.8125 19.707031 -15.429688 20.9375 -16.671875 C 22.164062 -17.910156 22.992188 -19.507812 23.421875 -21.46875 C 23.472656 -21.800781 23.519531 -22.128906 23.5625 -22.453125 C 23.601562 -22.785156 23.625 -23.09375 23.625 -23.375 C 23.625 -24.757812 23.273438 -25.890625 22.578125 -26.765625 C 21.890625 -27.640625 20.910156 -28.078125 19.640625 -28.078125 L 15.90625 -28.078125 Z M 13.0625 -14.8125 "/></g></g></g><g fill="#2c7bc3" fill-opacity="1"><g transform="translate(177.086159, 63.934243)"><g><path d="M 24.09375 -30.328125 C 26.21875 -30.328125 27.992188 -30.085938 29.421875 -29.609375 C 30.847656 -29.128906 31.96875 -28.5625 32.78125 -27.90625 C 33.601562 -27.257812 34.191406 -26.695312 34.546875 -26.21875 C 34.898438 -25.738281 35.078125 -25.5 35.078125 -25.5 L 33.640625 -24.390625 C 33.492188 -24.734375 33.085938 -25.222656 32.421875 -25.859375 C 31.765625 -26.492188 30.847656 -27.078125 29.671875 -27.609375 C 28.492188 -28.148438 27.03125 -28.421875 25.28125 -28.421875 C 21.769531 -28.421875 18.875 -27.203125 16.59375 -24.765625 C 14.320312 -22.335938 12.75 -19.046875 11.875 -14.890625 C 11.675781 -14.046875 11.535156 -13.234375 11.453125 -12.453125 C 11.367188 -11.671875 11.328125 -10.914062 11.328125 -10.1875 C 11.328125 -7.414062 11.984375 -5.234375 13.296875 -3.640625 C 14.609375 -2.054688 16.550781 -1.265625 19.125 -1.265625 C 20.03125 -1.265625 20.882812 -1.335938 21.6875 -1.484375 C 22.5 -1.628906 23.242188 -1.8125 23.921875 -2.03125 L 26.34375 -13.359375 L 24.21875 -13.359375 L 24.5625 -15.015625 L 32.828125 -15.015625 L 30.546875 -4.203125 C 30.546875 -4.203125 30.257812 -3.957031 29.6875 -3.46875 C 29.125 -2.988281 28.273438 -2.429688 27.140625 -1.796875 C 26.015625 -1.160156 24.617188 -0.601562 22.953125 -0.125 C 21.285156 0.351562 19.363281 0.59375 17.1875 0.59375 C 14.414062 0.59375 12.144531 0.113281 10.375 -0.84375 C 8.601562 -1.8125 7.289062 -3.140625 6.4375 -4.828125 C 5.59375 -6.523438 5.171875 -8.453125 5.171875 -10.609375 C 5.171875 -11.992188 5.34375 -13.421875 5.6875 -14.890625 C 6.3125 -17.742188 7.40625 -20.335938 8.96875 -22.671875 C 10.539062 -25.003906 12.59375 -26.863281 15.125 -28.25 C 17.65625 -29.632812 20.644531 -30.328125 24.09375 -30.328125 Z M 29.609375 -5.390625 C 29.691406 -5.441406 29.75 -5.488281 29.78125 -5.53125 C 29.8125 -5.570312 29.828125 -5.59375 29.828125 -5.59375 Z M 29.609375 -5.390625 "/></g></g></g><g fill="#2c7bc3" fill-opacity="1"><g transform="translate(209.668978, 63.934243)"><g><path d="M 20.953125 -30.328125 L 22.609375 -30.328125 L 28.171875 0 L 21.515625 0 L 19.9375 -9 L 9.625 -9 L 4.234375 0 L 2.453125 0 Z M 10.5625 -10.609375 L 19.640625 -10.609375 L 17.609375 -22.359375 Z M 10.5625 -10.609375 "/></g></g></g><g fill="#2c7bc3" fill-opacity="1"><g transform="translate(240.257795, 63.934243)"><g><path d="M 23.671875 -28.671875 C 21.546875 -28.671875 19.691406 -28.054688 18.109375 -26.828125 C 16.523438 -25.597656 15.21875 -23.9375 14.1875 -21.84375 C 13.15625 -19.75 12.367188 -17.429688 11.828125 -14.890625 C 11.628906 -13.898438 11.46875 -12.929688 11.34375 -11.984375 C 11.21875 -11.035156 11.15625 -10.140625 11.15625 -9.296875 C 11.15625 -6.859375 11.664062 -4.867188 12.6875 -3.328125 C 13.707031 -1.785156 15.40625 -1.015625 17.78125 -1.015625 C 19.925781 -1.015625 21.78125 -1.644531 23.34375 -2.90625 C 24.914062 -4.164062 26.222656 -5.84375 27.265625 -7.9375 C 28.316406 -10.03125 29.113281 -12.347656 29.65625 -14.890625 C 30.082031 -16.898438 30.296875 -18.753906 30.296875 -20.453125 C 30.296875 -22.878906 29.785156 -24.851562 28.765625 -26.375 C 27.742188 -27.90625 26.046875 -28.671875 23.671875 -28.671875 Z M 24.015625 -30.328125 C 26.835938 -30.328125 29.15625 -29.835938 30.96875 -28.859375 C 32.78125 -27.890625 34.125 -26.5625 35 -24.875 C 35.875 -23.195312 36.3125 -21.269531 36.3125 -19.09375 C 36.3125 -18.414062 36.269531 -17.726562 36.1875 -17.03125 C 36.101562 -16.34375 35.988281 -15.628906 35.84375 -14.890625 C 35.25 -12.035156 34.148438 -9.429688 32.546875 -7.078125 C 30.953125 -4.734375 28.890625 -2.867188 26.359375 -1.484375 C 23.828125 -0.0976562 20.851562 0.59375 17.4375 0.59375 C 14.601562 0.59375 12.289062 0.109375 10.5 -0.859375 C 8.707031 -1.835938 7.378906 -3.175781 6.515625 -4.875 C 5.648438 -6.570312 5.21875 -8.492188 5.21875 -10.640625 C 5.21875 -11.328125 5.253906 -12.019531 5.328125 -12.71875 C 5.398438 -13.425781 5.519531 -14.148438 5.6875 -14.890625 C 6.3125 -17.742188 7.414062 -20.335938 9 -22.671875 C 10.582031 -25.003906 12.628906 -26.863281 15.140625 -28.25 C 17.660156 -29.632812 20.617188 -30.328125 24.015625 -30.328125 Z M 24.015625 -30.328125 "/></g></g></g><g fill="#2c7bc3" fill-opacity="1"><g transform="translate(275.343719, 63.934243)"><g><path d="M 10.09375 -29.6875 L 16.25 -29.6875 L 26.171875 -9.546875 L 30.453125 -29.6875 L 32.109375 -29.6875 L 25.703125 0.375 L 24.046875 0.375 L 10.859375 -25.453125 L 5.4375 0 L 3.78125 0 Z M 10.09375 -29.6875 "/></g></g></g><g fill="#000000" fill-opacity="1"><g transform="translate(83.911393, 83.166772)"><g><path d="M 7.546875 0 L 1.046875 0 L 1.046875 -10.078125 L 7.546875 -10.078125 L 7.546875 -8.984375 L 2.25 -8.984375 L 2.25 -5.59375 L 6.9375 -5.59375 L 6.9375 -4.515625 L 2.25 -4.515625 L 2.25 -1.09375 L 7.546875 -1.09375 Z M 7.546875 0 "/></g></g></g><g fill="#000000" fill-opacity="1"><g transform="translate(93.359039, 83.166772)"><g><path d="M 4.21875 -3.921875 L 0.3125 -3.921875 L 0.3125 -4.890625 L 4.21875 -4.890625 Z M 4.21875 -3.921875 "/></g></g></g><g fill="#000000" fill-opacity="1"><g transform="translate(99.217921, 83.166772)"><g><path d="M 5.3125 0.125 C 4.519531 0.125 3.828125 -0.0078125 3.234375 -0.28125 C 2.648438 -0.5625 2.164062 -0.941406 1.78125 -1.421875 C 1.40625 -1.910156 1.125 -2.460938 0.9375 -3.078125 C 0.75 -3.703125 0.65625 -4.359375 0.65625 -5.046875 C 0.65625 -5.734375 0.75 -6.382812 0.9375 -7 C 1.125 -7.613281 1.40625 -8.160156 1.78125 -8.640625 C 2.164062 -9.128906 2.648438 -9.507812 3.234375 -9.78125 C 3.828125 -10.0625 4.519531 -10.203125 5.3125 -10.203125 C 6.0625 -10.203125 6.71875 -10.078125 7.28125 -9.828125 C 7.851562 -9.585938 8.3125 -9.242188 8.65625 -8.796875 C 9.007812 -8.359375 9.234375 -7.851562 9.328125 -7.28125 L 8.015625 -7.28125 C 7.890625 -7.851562 7.582031 -8.300781 7.09375 -8.625 C 6.613281 -8.957031 6.007812 -9.125 5.28125 -9.125 C 4.53125 -9.125 3.898438 -8.945312 3.390625 -8.59375 C 2.890625 -8.238281 2.507812 -7.753906 2.25 -7.140625 C 2 -6.523438 1.875 -5.828125 1.875 -5.046875 C 1.875 -4.265625 2 -3.5625 2.25 -2.9375 C 2.507812 -2.3125 2.890625 -1.820312 3.390625 -1.46875 C 3.898438 -1.125 4.53125 -0.953125 5.28125 -0.953125 C 6.007812 -0.953125 6.613281 -1.125 7.09375 -1.46875 C 7.582031 -1.820312 7.890625 -2.347656 8.015625 -3.046875 L 9.328125 -3.046875 C 9.171875 -2.066406 8.742188 -1.289062 8.046875 -0.71875 C 7.347656 -0.15625 6.4375 0.125 5.3125 0.125 Z M 5.3125 0.125 "/></g></g></g><g fill="#000000" fill-opacity="1"><g transform="translate(110.407181, 83.166772)"><g><path d="M 5.328125 0.125 C 4.535156 0.125 3.847656 -0.0078125 3.265625 -0.28125 C 2.679688 -0.5625 2.195312 -0.941406 1.8125 -1.421875 C 1.425781 -1.910156 1.132812 -2.460938 0.9375 -3.078125 C 0.75 -3.703125 0.65625 -4.359375 0.65625 -5.046875 C 0.65625 -5.734375 0.75 -6.382812 0.9375 -7 C 1.132812 -7.625 1.425781 -8.175781 1.8125 -8.65625 C 2.195312 -9.132812 2.679688 -9.507812 3.265625 -9.78125 C 3.847656 -10.0625 4.535156 -10.203125 5.328125 -10.203125 C 6.128906 -10.203125 6.828125 -10.0625 7.421875 -9.78125 C 8.015625 -9.507812 8.503906 -9.132812 8.890625 -8.65625 C 9.273438 -8.175781 9.5625 -7.625 9.75 -7 C 9.9375 -6.382812 10.03125 -5.734375 10.03125 -5.046875 C 10.03125 -4.359375 9.9375 -3.703125 9.75 -3.078125 C 9.5625 -2.460938 9.273438 -1.910156 8.890625 -1.421875 C 8.503906 -0.941406 8.015625 -0.5625 7.421875 -0.28125 C 6.828125 -0.0078125 6.128906 0.125 5.328125 0.125 Z M 5.328125 -0.96875 C 6.085938 -0.96875 6.726562 -1.140625 7.25 -1.484375 C 7.769531 -1.835938 8.160156 -2.320312 8.421875 -2.9375 C 8.679688 -3.5625 8.8125 -4.265625 8.8125 -5.046875 C 8.8125 -5.828125 8.679688 -6.519531 8.421875 -7.125 C 8.160156 -7.738281 7.769531 -8.222656 7.25 -8.578125 C 6.726562 -8.929688 6.085938 -9.109375 5.328125 -9.109375 C 4.585938 -9.109375 3.960938 -8.929688 3.453125 -8.578125 C 2.941406 -8.222656 2.550781 -7.738281 2.28125 -7.125 C 2.007812 -6.519531 1.875 -5.828125 1.875 -5.046875 C 1.875 -4.265625 2.007812 -3.5625 2.28125 -2.9375 C 2.550781 -2.320312 2.941406 -1.835938 3.453125 -1.484375 C 3.960938 -1.140625 4.585938 -0.96875 5.328125 -0.96875 Z M 5.328125 -0.96875 "/></g></g></g><g fill="#000000" fill-opacity="1"><g transform="translate(122.427662, 83.166772)"><g><path d="M 2.25 0 L 1.046875 0 L 1.046875 -10.078125 L 3.21875 -10.078125 L 5.921875 -1.5 L 8.640625 -10.078125 L 10.828125 -10.078125 L 10.828125 0 L 9.609375 0 L 9.609375 -9.34375 L 6.53125 0 L 5.328125 0 L 2.25 -9.28125 Z M 2.25 0 "/></g></g></g><g fill="#000000" fill-opacity="1"><g transform="translate(135.609215, 83.166772)"><g><path d="M 2.25 0 L 1.046875 0 L 1.046875 -10.078125 L 3.21875 -10.078125 L 5.921875 -1.5 L 8.640625 -10.078125 L 10.828125 -10.078125 L 10.828125 0 L 9.609375 0 L 9.609375 -9.34375 L 6.53125 0 L 5.328125 0 L 2.25 -9.28125 Z M 2.25 0 "/></g></g></g><g fill="#000000" fill-opacity="1"><g transform="translate(148.790768, 83.166772)"><g><path d="M 7.546875 0 L 1.046875 0 L 1.046875 -10.078125 L 7.546875 -10.078125 L 7.546875 -8.984375 L 2.25 -8.984375 L 2.25 -5.59375 L 6.9375 -5.59375 L 6.9375 -4.515625 L 2.25 -4.515625 L 2.25 -1.09375 L 7.546875 -1.09375 Z M 7.546875 0 "/></g></g></g><g fill="#000000" fill-opacity="1"><g transform="translate(158.238414, 83.166772)"><g><path d="M 6.171875 -4.46875 L 8.125 0 L 6.78125 0 L 5 -4.25 L 2.25 -4.25 L 2.25 0 L 1.046875 0 L 1.046875 -10.078125 L 4.796875 -10.078125 C 5.765625 -10.078125 6.535156 -9.835938 7.109375 -9.359375 C 7.691406 -8.878906 7.984375 -8.160156 7.984375 -7.203125 C 7.984375 -6.515625 7.820312 -5.9375 7.5 -5.46875 C 7.1875 -5.007812 6.742188 -4.675781 6.171875 -4.46875 Z M 2.25 -5.328125 L 4.640625 -5.328125 C 5.328125 -5.328125 5.851562 -5.484375 6.21875 -5.796875 C 6.59375 -6.109375 6.78125 -6.5625 6.78125 -7.15625 C 6.78125 -7.738281 6.59375 -8.1875 6.21875 -8.5 C 5.84375 -8.820312 5.316406 -8.984375 4.640625 -8.984375 L 2.25 -8.984375 Z M 2.25 -5.328125 "/></g></g></g><g fill="#000000" fill-opacity="1"><g transform="translate(168.266598, 83.166772)"><g><path d="M 5.3125 0.125 C 4.519531 0.125 3.828125 -0.0078125 3.234375 -0.28125 C 2.648438 -0.5625 2.164062 -0.941406 1.78125 -1.421875 C 1.40625 -1.910156 1.125 -2.460938 0.9375 -3.078125 C 0.75 -3.703125 0.65625 -4.359375 0.65625 -5.046875 C 0.65625 -5.734375 0.75 -6.382812 0.9375 -7 C 1.125 -7.613281 1.40625 -8.160156 1.78125 -8.640625 C 2.164062 -9.128906 2.648438 -9.507812 3.234375 -9.78125 C 3.828125 -10.0625 4.519531 -10.203125 5.3125 -10.203125 C 6.0625 -10.203125 6.71875 -10.078125 7.28125 -9.828125 C 7.851562 -9.585938 8.3125 -9.242188 8.65625 -8.796875 C 9.007812 -8.359375 9.234375 -7.851562 9.328125 -7.28125 L 8.015625 -7.28125 C 7.890625 -7.851562 7.582031 -8.300781 7.09375 -8.625 C 6.613281 -8.957031 6.007812 -9.125 5.28125 -9.125 C 4.53125 -9.125 3.898438 -8.945312 3.390625 -8.59375 C 2.890625 -8.238281 2.507812 -7.753906 2.25 -7.140625 C 2 -6.523438 1.875 -5.828125 1.875 -5.046875 C 1.875 -4.265625 2 -3.5625 2.25 -2.9375 C 2.507812 -2.3125 2.890625 -1.820312 3.390625 -1.46875 C 3.898438 -1.125 4.53125 -0.953125 5.28125 -0.953125 C 6.007812 -0.953125 6.613281 -1.125 7.09375 -1.46875 C 7.582031 -1.820312 7.890625 -2.347656 8.015625 -3.046875 L 9.328125 -3.046875 C 9.171875 -2.066406 8.742188 -1.289062 8.046875 -0.71875 C 7.347656 -0.15625 6.4375 0.125 5.3125 0.125 Z M 5.3125 0.125 "/></g></g></g><g fill="#000000" fill-opacity="1"><g transform="translate(179.455862, 83.166772)"><g><path d="M 7.546875 0 L 1.046875 0 L 1.046875 -10.078125 L 7.546875 -10.078125 L 7.546875 -8.984375 L 2.25 -8.984375 L 2.25 -5.59375 L 6.9375 -5.59375 L 6.9375 -4.515625 L 2.25 -4.515625 L 2.25 -1.09375 L 7.546875 -1.09375 Z M 7.546875 0 "/></g></g></g></svg>