<svg xmlns="http://www.w3.org/2000/svg" xmlns:xlink="http://www.w3.org/1999/xlink" width="140" zoomAndPan="magnify" viewBox="0 0 104.88 104.999996" height="140" preserveAspectRatio="xMidYMid meet" version="1.0"><defs><filter x="0%" y="0%" width="100%" height="100%" id="a4ab770240"><feColorMatrix values="0 0 0 0 1 0 0 0 0 1 0 0 0 0 1 0 0 0 1 0" color-interpolation-filters="sRGB"/></filter><clipPath id="d16d313419"><path d="M 0 0.0585938 L 104.761719 0.0585938 L 104.761719 104.9375 L 0 104.9375 Z M 0 0.0585938 " clip-rule="nonzero"/></clipPath><mask id="e9a532d688"><g filter="url(#a4ab770240)"><rect x="-10.488" width="125.856" fill="#000000" y="-10.5" height="125.999995" fill-opacity="0.8"/></g></mask><clipPath id="d8a36d2cd9"><path d="M 0 0.0585938 L 104.761719 0.0585938 L 104.761719 104.839844 L 0 104.839844 Z M 0 0.0585938 " clip-rule="nonzero"/></clipPath><clipPath id="441a5f1876"><path d="M 52.390625 0.0585938 C 23.457031 0.0585938 0 23.515625 0 52.449219 C 0 81.382812 23.457031 104.839844 52.390625 104.839844 C 81.324219 104.839844 104.777344 81.382812 104.777344 52.449219 C 104.777344 23.515625 81.324219 0.0585938 52.390625 0.0585938 Z M 52.390625 0.0585938 " clip-rule="nonzero"/></clipPath><clipPath id="981ded2956"><rect x="0" width="105" y="0" height="105"/></clipPath><clipPath id="6077554bd9"><path d="M 22.421875 30 L 86.613281 30 L 86.613281 74 L 22.421875 74 Z M 22.421875 30 " clip-rule="nonzero"/></clipPath><clipPath id="558551271d"><path d="M 38 18.332031 L 59 18.332031 L 59 31 L 38 31 Z M 38 18.332031 " clip-rule="nonzero"/></clipPath><clipPath id="7fde0882f6"><path d="M 63 77 L 72 77 L 72 86.507812 L 63 86.507812 Z M 63 77 " clip-rule="nonzero"/></clipPath><clipPath id="8c968b72fe"><path d="M 32 77 L 41 77 L 41 86.507812 L 32 86.507812 Z M 32 77 " clip-rule="nonzero"/></clipPath></defs><g clip-path="url(#d16d313419)"><g mask="url(#e9a532d688)"><g transform="matrix(1, 0, 0, 1, 0, 0.000000000000007029)"><g clip-path="url(#981ded2956)"><g clip-path="url(#d8a36d2cd9)"><g clip-path="url(#441a5f1876)"><path fill="#f5d702" d="M 0 0.0585938 L 104.777344 0.0585938 L 104.777344 104.839844 L 0 104.839844 Z M 0 0.0585938 " fill-opacity="1" fill-rule="nonzero"/></g></g></g></g></g></g><g clip-path="url(#6077554bd9)"><path fill="#3f4752" d="M 25.660156 67.414062 L 73.402344 67.414062 L 73.402344 41.253906 C 73.402344 40.273438 73.800781 39.292969 74.511719 38.582031 L 81.390625 31.640625 C 82.722656 30.304688 84.941406 30.394531 86.136719 31.910156 C 87.203125 33.199219 86.980469 35.15625 85.78125 36.359375 L 79.792969 42.363281 L 79.792969 70.082031 C 79.792969 72.175781 78.105469 73.820312 76.066406 73.820312 L 25.835938 73.820312 C 24.152344 73.820312 22.644531 72.621094 22.464844 70.929688 C 22.242188 69.0625 23.753906 67.414062 25.660156 67.414062 Z M 25.660156 67.414062 " fill-opacity="1" fill-rule="nonzero"/></g><path fill="#2c7bc3" d="M 66.304688 63.1875 L 30.585938 63.1875 C 28.855469 63.1875 27.523438 62.121094 27.703125 60.875 L 31.472656 35.335938 C 31.652344 34.265625 32.894531 33.464844 34.355469 33.464844 L 62.488281 33.464844 C 63.953125 33.464844 65.238281 34.265625 65.371094 35.335938 L 69.144531 60.875 C 69.367188 62.121094 68.035156 63.1875 66.304688 63.1875 Z M 41.855469 36.625 C 41.855469 35.867188 41.011719 35.289062 39.949219 35.289062 C 38.925781 35.289062 38.039062 35.914062 38.039062 36.625 L 38.039062 38.9375 C 38.039062 39.695312 38.882812 40.273438 39.949219 40.273438 C 40.96875 40.273438 41.855469 39.648438 41.855469 38.9375 Z M 48.46875 53.710938 C 46.382812 53.710938 44.339844 52.597656 42.789062 50.90625 C 41.234375 49.171875 40.125 46.945312 39.546875 44.410156 C 39.015625 46.992188 39.59375 49.839844 41.144531 52.199219 C 41.898438 53.355469 42.964844 54.421875 44.207031 55.179688 C 45.449219 55.933594 46.957031 56.425781 48.46875 56.425781 C 49.976562 56.425781 51.484375 55.980469 52.769531 55.179688 C 54.011719 54.421875 55.078125 53.355469 55.832031 52.199219 C 57.386719 49.839844 57.960938 46.992188 57.429688 44.410156 C 56.851562 46.945312 55.742188 49.171875 54.191406 50.90625 C 52.550781 52.597656 50.507812 53.710938 48.46875 53.710938 Z M 58.851562 36.625 C 58.851562 35.867188 58.007812 35.289062 56.941406 35.289062 C 55.921875 35.289062 55.035156 35.914062 55.035156 36.625 L 55.035156 38.9375 C 55.035156 39.695312 55.875 40.273438 56.941406 40.273438 C 57.960938 40.273438 58.851562 39.648438 58.851562 38.9375 Z M 58.851562 36.625 " fill-opacity="1" fill-rule="nonzero"/><g clip-path="url(#558551271d)"><path fill="#2c7bc3" d="M 56.984375 30.972656 L 56.941406 30.972656 C 55.964844 30.972656 55.210938 30.171875 55.210938 29.238281 L 55.210938 28.75 C 55.210938 24.878906 51.929688 21.765625 48.023438 22.03125 C 44.5625 22.253906 41.765625 25.546875 41.765625 29.015625 L 41.765625 29.238281 C 41.765625 30.21875 40.96875 30.972656 40.035156 30.972656 L 39.992188 30.972656 C 39.015625 30.972656 38.261719 30.171875 38.261719 29.238281 L 38.261719 29.0625 C 38.261719 23.542969 42.476562 18.738281 48.023438 18.472656 C 53.835938 18.203125 58.714844 22.921875 58.714844 28.75 L 58.714844 29.238281 C 58.714844 30.171875 57.917969 30.972656 56.984375 30.972656 Z M 56.984375 30.972656 " fill-opacity="1" fill-rule="nonzero"/></g><g clip-path="url(#7fde0882f6)"><path fill="#3f4752" d="M 64.195312 79.816406 C 64.042969 80.046875 63.914062 80.292969 63.808594 80.546875 C 63.707031 80.804688 63.625 81.070312 63.574219 81.34375 C 63.523438 81.613281 63.496094 81.890625 63.5 82.167969 C 63.5 82.445312 63.527344 82.71875 63.585938 82.992188 C 63.640625 83.261719 63.722656 83.527344 63.828125 83.78125 C 63.9375 84.039062 64.066406 84.28125 64.222656 84.511719 C 64.378906 84.742188 64.554688 84.953125 64.75 85.148438 C 64.949219 85.34375 65.164062 85.519531 65.394531 85.671875 C 65.625 85.824219 65.867188 85.953125 66.125 86.058594 C 66.378906 86.160156 66.644531 86.238281 66.917969 86.292969 C 67.1875 86.34375 67.460938 86.371094 67.738281 86.367188 C 68.015625 86.367188 68.289062 86.339844 68.5625 86.28125 C 68.832031 86.226562 69.09375 86.144531 69.351562 86.039062 C 69.605469 85.929688 69.847656 85.796875 70.078125 85.640625 C 70.304688 85.488281 70.519531 85.308594 70.710938 85.113281 C 70.90625 84.914062 71.082031 84.699219 71.234375 84.46875 C 71.386719 84.238281 71.511719 83.992188 71.617188 83.734375 C 71.722656 83.480469 71.800781 83.214844 71.851562 82.941406 C 71.90625 82.667969 71.929688 82.394531 71.929688 82.117188 C 71.925781 81.839844 71.898438 81.5625 71.84375 81.292969 C 71.789062 81.019531 71.707031 80.757812 71.597656 80.5 C 71.492188 80.246094 71.359375 80.003906 71.203125 79.773438 C 71.050781 79.542969 70.871094 79.328125 70.675781 79.136719 C 70.480469 78.941406 70.265625 78.765625 70.035156 78.613281 C 69.804688 78.460938 69.558594 78.332031 69.304688 78.226562 C 69.046875 78.121094 68.78125 78.042969 68.511719 77.992188 C 68.238281 77.9375 67.964844 77.914062 67.6875 77.914062 C 67.410156 77.917969 67.136719 77.945312 66.867188 78 C 66.59375 78.058594 66.332031 78.140625 66.078125 78.246094 C 65.820312 78.355469 65.578125 78.484375 65.351562 78.640625 C 65.121094 78.796875 64.910156 78.972656 64.714844 79.171875 C 64.519531 79.367188 64.347656 79.582031 64.195312 79.816406 Z M 64.195312 79.816406 " fill-opacity="1" fill-rule="nonzero"/></g><g clip-path="url(#8c968b72fe)"><path fill="#3f4752" d="M 36.355469 77.871094 C 38.707031 77.871094 40.570312 79.785156 40.570312 82.097656 C 40.570312 84.457031 38.660156 86.324219 36.355469 86.324219 C 34.003906 86.324219 32.136719 84.410156 32.136719 82.097656 C 32.136719 79.785156 34.046875 77.871094 36.355469 77.871094 Z M 36.355469 77.871094 " fill-opacity="1" fill-rule="nonzero"/></g></svg>